<?xml version="1.0" standalone="no"?><!DOCTYPE svg PUBLIC "-//W3C//DTD SVG 1.1//EN" "http://www.w3.org/Graphics/SVG/1.1/DTD/svg11.dtd"><svg t="1748859351670" class="icon" viewBox="0 0 1024 1024" version="1.1" xmlns="http://www.w3.org/2000/svg" p-id="8581" id="mx_n_1748859351671" width="256" height="256" xmlns:xlink="http://www.w3.org/1999/xlink"><path d="M273.148 506.06l63.994-160 29.712 11.88-63.994 160.004zM246.4 371.2l-64 48a16 16 0 0 0 0 25.6l64 48 19.2-25.6-46.934-35.2 46.934-35.2zM393.6 492.8l64-48a16 16 0 0 0 0-25.6l-64-48-19.2 25.6 46.934 35.2-46.934 35.2zM96 272h32v32H96zM160 272h32v32H160zM224 272h32v32h-32z" p-id="8582" fill="#d4237a"></path><path d="M895.854 548.32L768 530.118v-50.186A159.548 159.548 0 0 0 831.2 368h0.8a63.984 63.984 0 0 0 30.946-120 63.99 63.99 0 0 0-15.2-118.038A72.098 72.098 0 0 0 776 64a71.298 71.298 0 0 0-34.3 8.858 79.88 79.88 0 0 0-139.4 0A71.298 71.298 0 0 0 568 64a72.098 72.098 0 0 0-71.75 65.96A64.036 64.036 0 0 0 450.026 208H96a64.072 64.072 0 0 0-64 64v368a64.072 64.072 0 0 0 64 64h169.8l-21.334 64H224a48.228 48.228 0 0 0-48 48 48.054 48.054 0 0 0 48 48h128v48a80.09 80.09 0 0 0 80 80s50.216-0.116 51.304-0.346l188.478-39.77 188.922 39.772c1.084 0.228 51.296 0.344 51.296 0.344a80.09 80.09 0 0 0 80-80V659.2a112.77 112.77 0 0 0-96.146-110.88zM608 498.632a159.896 159.896 0 0 0 128 0v42.432c-12.572 31.866-41.09 43.31-64 43.31s-51.428-11.444-64-43.31zM800 352a128 128 0 0 1-256 0v-5.736A63.956 63.956 0 0 0 653.974 320h36.052A63.956 63.956 0 0 0 800 346.264V352z m-320-48a32.038 32.038 0 0 1 32-32v64a32.038 32.038 0 0 1-32-32z m272-64a64.112 64.112 0 0 0-61.974 48h-36.052a63.942 63.942 0 0 0-96.492-37.85l3.966-11.9A61.848 61.848 0 0 0 576 240a64.032 64.032 0 0 0 54.816-31 64.058 64.058 0 0 0 82.368 0A64.032 64.032 0 0 0 768 240a61.848 61.848 0 0 0 14.552-1.75l3.966 11.9A63.6 63.6 0 0 0 752 240z m32 64a32 32 0 1 1-32-32 32.038 32.038 0 0 1 32 32z m-160 0a32 32 0 1 1-32-32 32.038 32.038 0 0 1 32 32z m208 32v-64a32 32 0 0 1 0 64zM511.228 160.01c0.4 0.034 0.858 0.064 1.362 0.07a16 16 0 0 0 16.058-18.304l-0.102-0.684A38.782 38.782 0 0 1 528 136a40.046 40.046 0 0 1 40-40 39.456 39.456 0 0 1 29.562 13.358 16 16 0 0 0 27.532-7.39 47.958 47.958 0 0 1 93.812 0 16 16 0 0 0 27.532 7.4A39.456 39.456 0 0 1 776 96a40.046 40.046 0 0 1 40 40 38.782 38.782 0 0 1-0.546 5.092l-0.102 0.684a16 16 0 0 0 3.8 12.856 15.644 15.644 0 0 0 12.252 5.448c0.504 0 0.956-0.034 1.36-0.07A32 32 0 0 1 832 224c-1.564 0-16.484-0.708-20.334 0.4l-4.108-12.328a16 16 0 0 0-23.358-8.692A31.43 31.43 0 0 1 768 208a32.038 32.038 0 0 1-32-32 16 16 0 0 0-21.052-15.182l-3.26 1.084a16 16 0 0 0-9.908 9.472 31.812 31.812 0 0 1-59.56 0 16 16 0 0 0-9.908-9.472l-3.26-1.084A16 16 0 0 0 608 176a32.038 32.038 0 0 1-32 32 31.43 31.43 0 0 1-16.2-4.62 16 16 0 0 0-23.35 8.696l-4.108 12.326c-3.848-1.108-18.77-0.4-20.334-0.4a32 32 0 0 1-0.772-64zM64 272a32.038 32.038 0 0 1 32-32h373.736a64.34 64.34 0 0 0 11.318 8A63.984 63.984 0 0 0 512 368h0.8a159.532 159.532 0 0 0 63.2 111.94v51.124l-135.558 28.986A111.928 111.928 0 0 0 383.51 592H64z m0 368v-16h297.86a110.762 110.762 0 0 0-9.86 45.6v2.4H96a32.038 32.038 0 0 1-32-32z m235.532 64H352v64h-73.8zM208 816a15.312 15.312 0 0 1 4.6-11.092c0.106-0.102 0.21-0.2 0.312-0.31A15.31 15.31 0 0 1 224 800h128v32h-128a16.018 16.018 0 0 1-16-16z m270.33 144H432a48.054 48.054 0 0 1-48-48v-16h59.156l43.968 29.312A16 16 0 0 0 496 928h62.334l35.864 7.55zM960 912a48.054 48.054 0 0 1-48 48h-46.334l-302.37-63.656A16.01 16.01 0 0 0 560 896h-59.156l-43.97-29.312A16 16 0 0 0 448 864h-64v-80h60.716l108.982 46.708a16.112 16.112 0 0 0 5.074 1.246L960 862.816z m0-81.278l-143.874-11.068 54.2-23.2L899.294 784H960zM960 752h-64a16.044 16.044 0 0 0-6.32 1.3l-9.68 4.15V704h-32v67.164l-67.876 29.088-107.886 8.334-108.37-8.336L496 771.164V704h-32v53.45l-9.698-4.158A16.02 16.02 0 0 0 448 752h-64v-82.4a80.628 80.628 0 0 1 63.186-78.274l135.414-28.956a101 101 0 0 0 179.226-0.8l3.908 0.558L891.292 580A80.586 80.586 0 0 1 960 659.2z" p-id="8583" fill="#d4237a"></path><path d="M657.868 384H624v32h33.868c21.612 0 42.866-0.672 63.174-2l-2.084-31.934c-19.616 1.286-40.158 1.934-61.09 1.934z" p-id="8584" fill="#d4237a"></path></svg>